# xmcd
#
# Track frame offsets:
#	150
#	119292
#	221667
#
# Disc length: 4191 seconds
#
# Revision: 1
# Processed by: cddbd v1.5.2PL0 Copyright (c) Steve Scherf et al.
# Submitted via: audiograbber 1.83.01
#
DISCID=26105d03
DTITLE=Sequentia Legenda - Ethereal
DYEAR=2017
DGENRE=Electronic
TTITLE0=Stratums of Seraphic Voices
TTITLE1=Around the Second Moon
TTITLE2=Elevation
EXTD=
EXTT0=
EXTT1=
EXTT2=
PLAYORDER=
